<?xml version="1.0" encoding="UTF-8"?><svg id="LOGHI_PANTONE" xmlns="http://www.w3.org/2000/svg" viewBox="0 0 841.89 283.46"><g id="Logo"><g id="RUNNING_MAN"><path d="M172.95,45.86c-9.06,0-16.39,7.35-16.39,16.42s7.32,16.38,16.39,16.38,16.39-7.33,16.39-16.38-7.34-16.42-16.39-16.42Z" style="fill:#00a68b; stroke-width:0px;"/><path d="M137.01,114.83l20.47-26.95c1.05-1.38,1.13-3.26.22-4.73l-8.7-13.95c-.77-1.23-2.12-1.97-3.57-1.96l-37.53.26h0l-20.58-.02c-1.61,0-2.33,2.02-1.07,3.04l5.77,4.65c.81.65,1.77,1.1,2.8,1.29l35.74,6.73-44.22,47.52-58.2,8.27c-2.02.29-2.88,2.72-1.49,4.21l5.68,6.1c1.12,1.21,2.71,1.88,4.36,1.85l56.18-.92c2.08-.03,4.11-.62,5.89-1.71l13.46-8.2,28.41,22.55c1.12.89,1.85,2.17,2.04,3.59l5.41,39.82c.25,1.88,1.86,3.28,3.75,3.28h2.89c2.09,0,3.78-1.69,3.79-3.77l.17-44.19c0-2.28-.72-4.5-2.08-6.33l-24.79-33.41,5.18-7.01Z" style="fill:#00a68b; stroke-width:0px;"/></g><path d="M278.45,171.19l-19.37-35.04h-15.38v35.04h-21v-98.62h46.13c20.55,0,33.27,13.45,33.27,31.79,0,17.3-11.09,26.76-21.73,29.28l22.33,37.56h-24.25ZM280.52,104.21c0-8.13-6.36-13.16-14.64-13.16h-22.18v26.61h22.18c8.28,0,14.64-5.03,14.64-13.45Z" style="fill:#024854; stroke-width:0px;"/><path d="M317.78,171.19v-98.62h69.79v18.48h-48.79v20.7h47.76v18.48h-47.76v22.47h48.79v18.48h-69.79Z" style="fill:#024854; stroke-width:0px;"/><path d="M403.98,171.19v-98.62h46.13c21.44,0,33.12,14.49,33.12,31.79s-11.83,31.64-33.12,31.64h-25.14v35.19h-20.99ZM461.79,104.36c0-8.28-6.36-13.31-14.64-13.31h-22.18v26.47h22.18c8.28,0,14.64-5.03,14.64-13.16Z" style="fill:#024854; stroke-width:0px;"/><path d="M495.5,171.19v-98.62h21.14v80.14h41.7v18.48h-62.84Z" style="fill:#024854; stroke-width:0px;"/><path d="M581.25,171.19v-40.36l-37.85-58.26h23.95l24.4,39.48,24.4-39.48h23.81l-37.7,58.26v40.36h-21Z" style="fill:#024854; stroke-width:0px;"/><path d="M220.04,231.04l4.07-5.61c2.77,3.02,7.27,5.73,13,5.73s8.19-2.9,8.19-5.67c0-8.62-23.9-3.26-23.9-18.36,0-6.84,5.91-12.07,14.97-12.07,6.34,0,11.58,2.09,15.34,5.79l-4.07,5.36c-3.26-3.26-7.64-4.74-11.95-4.74s-6.9,2.09-6.9,5.11c0,7.7,23.9,2.96,23.9,18.23,0,6.84-4.87,12.75-15.89,12.75-7.58,0-13.06-2.71-16.75-6.53Z" style="fill:#00a68b; stroke-width:0px;"/><path d="M268.46,236.83v-34.74h-12.44v-6.34h32.09v6.34h-12.44v34.74h-7.21Z" style="fill:#00a68b; stroke-width:0px;"/><path d="M290.88,216.32c0-12.26,8.69-21.25,21.01-21.25s21.01,8.99,21.01,21.25-8.75,21.25-21.01,21.25-21.01-8.99-21.01-21.25ZM325.5,216.32c0-8.5-5.36-14.85-13.61-14.85s-13.61,6.34-13.61,14.85,5.3,14.85,13.61,14.85,13.61-6.41,13.61-14.85Z" style="fill:#00a68b; stroke-width:0px;"/><path d="M363.27,236.83l-9.05-15.34h-7.21v15.34h-7.21v-41.09h18.05c8.13,0,13.49,5.24,13.49,12.87s-4.81,11.27-9.79,12.07l10.1,16.14h-8.38ZM363.94,208.56c0-3.94-2.96-6.47-7.02-6.47h-9.92v13.06h9.92c4.07,0,7.02-2.59,7.02-6.59Z" style="fill:#00a68b; stroke-width:0px;"/><path d="M414.03,236.83v-31.72l-12.57,31.72h-3.08l-12.63-31.72v31.72h-7.21v-41.09h10.16l11.21,28.21,11.15-28.21h10.16v41.09h-7.21Z" style="fill:#00a68b; stroke-width:0px;"/></g></svg>